<svg version="1.1" id="Layer_1" xmlns="http://www.w3.org/2000/svg" xmlns:xlink="http://www.w3.org/1999/xlink" x="0px" y="0px"
	 width="100%" viewBox="0 0 2048 2048" enable-background="new 0 0 2048 2048" xml:space="preserve">
<path fill="#FFFFFF" opacity="1.000000" stroke="none" 
	d="
M1294.000000,2049.000000 
	C862.666687,2049.000000 431.833344,2049.000000 1.000000,2049.000000 
	C1.000000,1366.333374 1.000000,683.666687 1.000000,1.000000 
	C683.666687,1.000000 1366.333374,1.000000 2049.000000,1.000000 
	C2049.000000,683.666687 2049.000000,1366.333374 2049.000000,2049.000000 
	C1797.500000,2049.000000 1546.000000,2049.000000 1294.000000,2049.000000 
M580.282104,1480.024170 
	C582.435974,1481.013306 584.521240,1482.210449 586.757996,1482.947998 
	C591.313232,1484.450439 595.990845,1485.581909 600.545471,1487.085938 
	C611.329224,1490.647705 621.990723,1494.601440 632.854492,1497.892334 
	C641.541077,1500.523804 650.435791,1502.483398 659.276428,1504.580078 
	C661.501587,1505.108032 663.916260,1504.801758 666.169861,1505.250732 
	C675.398682,1507.088745 684.537415,1509.473999 693.826416,1510.889526 
	C703.772766,1512.405396 713.848328,1513.081665 723.871704,1514.081909 
	C733.892700,1515.081909 743.941162,1517.016602 753.938293,1516.792236 
	C774.018982,1516.341675 794.112061,1518.707764 814.235413,1515.293457 
	C824.235779,1513.596924 834.637878,1514.663086 844.795654,1512.186157 
	C853.711670,1510.012329 863.058105,1509.672607 872.119568,1508.006714 
	C881.163696,1506.343994 890.158508,1504.299438 899.049683,1501.948608 
	C909.156250,1499.276611 919.141235,1496.136475 929.147339,1493.095459 
	C940.109741,1489.763672 951.092102,1486.480713 961.956604,1482.849854 
	C968.335388,1480.718140 974.611694,1478.191528 980.732849,1475.401245 
	C986.929993,1472.576050 992.825867,1469.097290 998.955322,1466.113525 
	C1003.188660,1464.053101 1007.785828,1462.689453 1011.879456,1460.403931 
	C1018.157349,1456.898682 1024.114380,1452.822998 1030.257446,1449.070923 
	C1040.145020,1443.031860 1050.058105,1437.034180 1059.992554,1431.072632 
	C1063.262695,1429.110107 1065.930664,1427.579712 1069.733765,1431.511230 
	C1073.610596,1435.519043 1078.982422,1438.197388 1083.957153,1441.000977 
	C1093.229248,1446.226562 1102.598999,1451.296509 1112.093506,1456.104736 
	C1121.912598,1461.077759 1131.900391,1465.722290 1141.869507,1470.392700 
	C1147.033081,1472.811890 1152.314575,1474.979126 1157.544922,1477.255371 
	C1163.497681,1479.846069 1169.316162,1482.830322 1175.438965,1484.924438 
	C1184.357300,1487.975098 1193.502441,1490.359741 1202.536011,1493.077515 
	C1206.325317,1494.217529 1210.089233,1495.446777 1213.842041,1496.702515 
	C1218.004761,1498.095703 1222.074341,1499.819946 1226.305786,1500.943115 
	C1232.827026,1502.673950 1239.444702,1504.046143 1246.033813,1505.514893 
	C1254.363281,1507.371460 1262.640381,1509.596436 1271.058838,1510.885620 
	C1280.839966,1512.383301 1290.741821,1513.128418 1300.606079,1514.038208 
	C1312.287231,1515.115601 1323.968872,1516.504883 1335.678467,1516.879883 
	C1350.995972,1517.370361 1366.344482,1517.184204 1381.672852,1516.908813 
	C1387.763306,1516.799438 1393.736328,1516.978149 1400.015869,1515.418091 
	C1410.004150,1512.936523 1420.641968,1513.140259 1430.975464,1511.950928 
	C1437.093140,1511.246582 1443.185303,1510.209717 1449.233521,1509.036865 
	C1460.785889,1506.796631 1472.342285,1504.544922 1483.813477,1501.930786 
	C1492.737427,1499.897461 1501.603638,1497.537964 1510.369751,1494.904541 
	C1520.550659,1491.846069 1530.747070,1488.725586 1540.654053,1484.900024 
	C1550.216187,1481.207642 1559.382812,1476.501343 1568.792969,1472.400635 
	C1574.014038,1470.125488 1579.575317,1468.568848 1584.639771,1466.008789 
	C1598.845581,1458.827271 1612.899170,1451.341919 1626.954956,1443.867554 
	C1631.115967,1441.654785 1635.209229,1439.265625 1639.117798,1436.636719 
	C1648.713989,1430.182373 1658.225342,1423.599487 1667.691772,1416.955811 
	C1674.439453,1412.220093 1681.261230,1407.553223 1687.678711,1402.393921 
	C1694.185181,1397.163086 1700.245850,1391.376465 1706.483521,1385.812866 
	C1715.271118,1377.975342 1724.396606,1370.474976 1732.726318,1362.176758 
	C1742.220947,1352.718140 1751.212769,1342.726196 1760.016968,1332.612549 
	C1766.236572,1325.467896 1771.804321,1317.753662 1777.619995,1310.260376 
	C1784.768311,1301.050049 1792.185791,1292.026367 1798.900269,1282.508423 
	C1804.833984,1274.097168 1810.051636,1265.172607 1815.421997,1256.374756 
	C1820.666626,1247.783081 1825.910522,1239.178589 1830.768555,1230.366943 
	C1834.709351,1223.219482 1838.282715,1215.848999 1841.646484,1208.408936 
	C1845.646729,1199.560669 1849.430420,1190.603394 1852.960815,1181.558105 
	C1855.365845,1175.395752 1857.060791,1168.960327 1859.276978,1162.719482 
	C1863.298096,1151.396729 1867.511230,1140.142334 1871.536499,1128.821167 
	C1872.129517,1127.153809 1871.977661,1125.235718 1872.437500,1123.504517 
	C1873.890625,1118.034302 1875.746948,1112.657104 1876.934937,1107.133789 
	C1878.609497,1099.348389 1879.793579,1091.458496 1881.246582,1083.624268 
	C1882.794922,1075.275146 1884.648438,1066.974487 1885.915283,1058.584106 
	C1886.726196,1053.212280 1886.656250,1047.711670 1887.085327,1042.276978 
	C1888.021606,1030.416992 1889.112671,1018.568665 1889.955933,1006.702454 
	C1890.285767,1002.061462 1890.048706,997.382874 1890.199341,992.725647 
	C1890.366455,987.561157 1891.127930,982.376709 1890.844238,977.244446 
	C1890.132935,964.377380 1889.192993,951.513794 1887.938965,938.688477 
	C1886.704712,926.065491 1885.272339,913.445129 1883.349243,900.912292 
	C1882.113525,892.859924 1879.722656,884.991028 1878.054688,876.997009 
	C1876.575562,869.907593 1875.361328,862.762329 1874.075684,855.633423 
	C1873.842285,854.338684 1874.041992,852.941833 1873.678223,851.698547 
	C1871.857544,845.475403 1869.862427,839.303467 1868.033813,833.082581 
	C1866.591309,828.175537 1865.637085,823.100281 1863.877319,818.316162 
	C1859.394531,806.129028 1854.652832,794.035034 1849.875610,781.958801 
	C1847.005371,774.703125 1844.060547,767.464722 1840.796021,760.381470 
	C1838.570801,755.553528 1835.636719,751.057678 1833.196167,746.322266 
	C1830.288574,740.680542 1827.749390,734.843994 1824.719238,729.271912 
	C1821.629028,723.589478 1818.077271,718.160034 1814.836670,712.556763 
	C1811.255249,706.363831 1808.131592,699.878784 1804.199097,693.923340 
	C1799.601440,686.960388 1794.471313,680.334473 1789.348267,673.736206 
	C1779.899902,661.566956 1770.500977,649.347961 1760.666748,637.493896 
	C1754.525513,630.091431 1747.714600,623.232727 1741.039429,616.288574 
	C1734.441772,609.425171 1727.917603,602.449341 1720.850952,596.089783 
	C1712.271606,588.369019 1703.197144,581.194153 1694.263794,573.872253 
	C1686.553711,567.553040 1678.938110,561.091064 1670.912964,555.192688 
	C1664.275146,550.314026 1657.135254,546.110657 1650.155151,541.707520 
	C1640.250732,535.459595 1630.565186,528.791321 1620.282593,523.234375 
	C1606.885254,515.994080 1593.080933,509.482727 1579.286499,503.009918 
	C1569.995972,498.650452 1560.475464,494.761841 1550.955811,490.915009 
	C1540.759033,486.794617 1530.525513,482.734558 1520.153931,479.086243 
	C1510.750488,475.778473 1501.243530,472.652466 1491.591553,470.194794 
	C1481.625488,467.657104 1471.455200,465.881927 1461.324341,464.047882 
	C1455.836792,463.054443 1450.204102,462.868439 1444.710815,461.899658 
	C1436.573120,460.464569 1428.567505,457.955383 1420.384766,457.179291 
	C1409.140137,456.112732 1397.793457,454.966614 1386.616455,454.503937 
	C1369.130981,453.780121 1351.526855,452.792816 1333.830322,455.577576 
	C1320.657959,457.650421 1306.968262,456.015747 1293.596924,458.835999 
	C1284.432983,460.768829 1274.864502,460.712769 1265.620117,462.353271 
	C1256.044312,464.052551 1246.610962,466.606445 1237.170776,469.004608 
	C1225.941040,471.857391 1214.741577,474.839661 1203.583862,477.962189 
	C1195.931885,480.103668 1188.318726,482.416595 1180.787231,484.947662 
	C1171.157104,488.183929 1161.386597,491.171295 1152.112671,495.256195 
	C1139.771729,500.691986 1127.840210,507.060089 1115.752563,513.067505 
	C1099.151978,521.317810 1082.918579,530.182739 1067.966553,541.252563 
	C1067.061646,541.922546 1064.754883,541.559937 1063.587280,540.862610 
	C1058.978027,538.110291 1054.717773,534.756042 1050.039185,532.142090 
	C1043.492310,528.484253 1036.585815,525.472290 1030.017334,521.850098 
	C1020.796570,516.765198 1011.933533,511.003296 1002.560181,506.232941 
	C995.346985,502.561981 987.548035,500.055939 980.072571,496.883240 
	C969.337708,492.327148 958.812073,487.232117 947.909424,483.132111 
	C939.423645,479.940979 930.514099,477.863220 921.764465,475.391266 
	C914.524475,473.345856 907.283997,471.274750 899.967163,469.537506 
	C893.885132,468.093475 887.660278,467.260040 881.555420,465.901154 
	C873.323792,464.068756 865.213745,461.619202 856.927002,460.124969 
	C848.704285,458.642303 840.308167,458.150848 832.022522,456.980621 
	C821.042969,455.429840 809.830750,454.997009 798.928040,454.580994 
	C778.041016,453.784027 756.951355,451.975250 735.979065,455.808319 
	C724.975159,457.819489 713.620605,457.854126 702.452759,459.046204 
	C694.421814,459.903442 686.375427,460.872162 678.448364,462.381561 
	C668.566528,464.263214 658.786194,466.692444 648.988159,468.996490 
	C640.780579,470.926514 632.575195,472.884674 624.434204,475.073578 
	C616.761475,477.136536 609.015076,479.091095 601.588745,481.863983 
	C591.973633,485.454193 582.644897,489.811218 573.190674,493.832947 
	C562.824402,498.242615 552.309448,502.336517 542.127075,507.136017 
	C530.881348,512.436646 519.729431,518.012085 508.924591,524.150757 
	C498.279053,530.198914 487.965088,536.872742 477.798248,543.707397 
	C470.533966,548.590881 463.739685,554.175720 456.759949,559.479553 
	C447.708923,566.357300 438.382965,572.913940 429.722351,580.254150 
	C419.470001,588.943481 409.386810,597.914612 399.981445,607.500610 
	C387.791168,619.924988 376.283356,633.023560 364.601746,645.940369 
	C359.574341,651.499451 354.701172,657.213623 350.024689,663.070374 
	C344.800598,669.612854 339.731354,676.291931 334.881287,683.115295 
	C331.942810,687.249329 329.546967,691.769226 326.908966,696.116699 
	C323.619385,701.537964 320.331390,706.960144 317.042938,712.382080 
	C311.836823,720.965698 306.123657,729.289062 301.550049,738.197449 
	C295.487244,750.006653 290.204529,762.223816 284.795929,774.358948 
	C280.721344,783.500977 276.790283,792.717102 273.148193,802.038208 
	C270.672668,808.373718 268.810852,814.948853 266.668488,821.414795 
	C263.784485,830.118896 260.601379,838.738220 258.108978,847.552856 
	C256.411591,853.555969 255.787445,859.854736 254.484467,865.979004 
	C252.764328,874.063843 250.705887,882.078247 249.065399,890.178040 
	C247.834473,896.255737 246.830994,902.395874 246.083664,908.551636 
	C244.593033,920.829956 243.284271,933.131592 242.032379,945.437012 
	C241.514572,950.526672 240.928101,955.662415 241.071945,960.757385 
	C241.792831,986.289062 238.993301,1011.922485 243.867416,1037.349731 
	C245.910782,1048.009399 247.511444,1058.896973 247.773590,1069.718262 
	C248.087708,1082.684692 251.839188,1094.802490 254.640945,1107.180176 
	C256.394318,1114.926392 258.600372,1122.570679 260.630096,1130.253662 
	C262.105957,1135.840088 263.289337,1141.533325 265.198547,1146.969727 
	C268.754395,1157.094849 272.626007,1167.114502 276.595642,1177.086792 
	C279.156464,1183.519897 282.098511,1189.802490 284.924255,1196.128174 
	C286.201447,1198.987305 287.635559,1201.776001 288.956604,1204.616089 
	C293.433533,1214.241089 297.456055,1224.108887 302.471832,1233.443481 
	C308.206635,1244.116089 314.694580,1254.394653 321.097900,1264.693481 
	C324.620178,1270.358643 328.581909,1275.755981 332.453674,1281.197021 
	C336.554169,1286.959717 340.820618,1292.603882 344.944214,1298.350464 
	C348.717194,1303.608032 352.242615,1309.050659 356.170288,1314.187500 
	C358.804535,1317.632812 362.053558,1320.600586 364.847900,1323.932495 
	C372.925842,1333.564331 380.429688,1343.730957 389.064178,1352.828369 
	C398.712524,1362.993896 409.152893,1372.442627 419.631989,1381.772705 
	C427.036987,1388.365601 435.043396,1394.288452 442.849457,1400.423584 
	C449.944672,1406.000122 457.056732,1411.561035 464.302094,1416.939331 
	C470.030975,1421.191772 475.907562,1425.254883 481.839142,1429.221802 
	C487.992889,1433.337280 494.187073,1437.413086 500.559692,1441.173950 
	C505.865875,1444.305542 511.478577,1446.913940 516.914978,1449.829712 
	C525.615662,1454.495972 534.219482,1459.347046 542.985413,1463.885864 
	C549.143005,1467.073853 555.443481,1470.005493 561.788391,1472.806519 
	C567.606689,1475.375122 573.569824,1477.615479 580.282104,1480.024170 
z"/>
<path fill="#816FF9" opacity="1.000000" stroke="none" 
	d="
M579.875610,1480.012329 
	C573.569824,1477.615479 567.606689,1475.375122 561.788391,1472.806519 
	C555.443481,1470.005493 549.143005,1467.073853 542.985413,1463.885864 
	C534.219482,1459.347046 525.615662,1454.495972 516.914978,1449.829712 
	C511.478577,1446.913940 505.865875,1444.305542 500.559692,1441.173950 
	C494.187073,1437.413086 487.992889,1433.337280 481.839142,1429.221802 
	C475.907562,1425.254883 470.030975,1421.191772 464.302094,1416.939331 
	C457.056732,1411.561035 449.944672,1406.000122 442.849457,1400.423584 
	C435.043396,1394.288452 427.036987,1388.365601 419.631989,1381.772705 
	C409.152893,1372.442627 398.712524,1362.993896 389.064178,1352.828369 
	C380.429688,1343.730957 372.925842,1333.564331 364.847900,1323.932495 
	C362.053558,1320.600586 358.804535,1317.632812 356.170288,1314.187500 
	C352.242615,1309.050659 348.717194,1303.608032 344.944214,1298.350464 
	C340.820618,1292.603882 336.554169,1286.959717 332.453674,1281.197021 
	C328.581909,1275.755981 324.620178,1270.358643 321.097900,1264.693481 
	C314.694580,1254.394653 308.206635,1244.116089 302.471832,1233.443481 
	C297.456055,1224.108887 293.433533,1214.241089 288.956604,1204.616089 
	C287.635559,1201.776001 286.201447,1198.987305 284.924255,1196.128174 
	C282.098511,1189.802490 279.156464,1183.519897 276.595642,1177.086792 
	C272.626007,1167.114502 268.754395,1157.094849 265.198547,1146.969727 
	C263.289337,1141.533325 262.105957,1135.840088 260.630096,1130.253662 
	C258.600372,1122.570679 256.394318,1114.926392 254.640945,1107.180176 
	C251.839188,1094.802490 248.087708,1082.684692 247.773590,1069.718262 
	C247.511444,1058.896973 245.910782,1048.009399 243.867416,1037.349731 
	C238.993301,1011.922485 241.792831,986.289062 241.071945,960.757385 
	C240.928101,955.662415 241.514572,950.526672 242.032379,945.437012 
	C243.284271,933.131592 244.593033,920.829956 246.083664,908.551636 
	C246.830994,902.395874 247.834473,896.255737 249.065399,890.178040 
	C250.705887,882.078247 252.764328,874.063843 254.484467,865.979004 
	C255.787445,859.854736 256.411591,853.555969 258.108978,847.552856 
	C260.601379,838.738220 263.784485,830.118896 266.668488,821.414795 
	C268.810852,814.948853 270.672668,808.373718 273.148193,802.038208 
	C276.790283,792.717102 280.721344,783.500977 284.795929,774.358948 
	C290.204529,762.223816 295.487244,750.006653 301.550049,738.197449 
	C306.123657,729.289062 311.836823,720.965698 317.042938,712.382080 
	C320.331390,706.960144 323.619385,701.537964 326.908966,696.116699 
	C329.546967,691.769226 331.942810,687.249329 334.881287,683.115295 
	C339.731354,676.291931 344.800598,669.612854 350.024689,663.070374 
	C354.701172,657.213623 359.574341,651.499451 364.601746,645.940369 
	C376.283356,633.023560 387.791168,619.924988 399.981445,607.500610 
	C409.386810,597.914612 419.470001,588.943481 429.722351,580.254150 
	C438.382965,572.913940 447.708923,566.357300 456.759949,559.479553 
	C463.739685,554.175720 470.533966,548.590881 477.798248,543.707397 
	C487.965088,536.872742 498.279053,530.198914 508.924591,524.150757 
	C519.729431,518.012085 530.881348,512.436646 542.127075,507.136017 
	C552.309448,502.336517 562.824402,498.242615 573.190674,493.832947 
	C582.644897,489.811218 591.973633,485.454193 601.588745,481.863983 
	C609.015076,479.091095 616.761475,477.136536 624.434204,475.073578 
	C632.575195,472.884674 640.780579,470.926514 648.988159,468.996490 
	C658.786194,466.692444 668.566528,464.263214 678.448364,462.381561 
	C686.375427,460.872162 694.421814,459.903442 702.452759,459.046204 
	C713.620605,457.854126 724.975159,457.819489 735.979065,455.808319 
	C756.951355,451.975250 778.041016,453.784027 798.928040,454.580994 
	C809.830750,454.997009 821.042969,455.429840 832.022522,456.980621 
	C840.308167,458.150848 848.704285,458.642303 856.927002,460.124969 
	C865.213745,461.619202 873.323792,464.068756 881.555420,465.901154 
	C887.660278,467.260040 893.885132,468.093475 899.967163,469.537506 
	C907.283997,471.274750 914.524475,473.345856 921.764465,475.391266 
	C930.514099,477.863220 939.423645,479.940979 947.909424,483.132111 
	C958.812073,487.232117 969.337708,492.327148 980.072571,496.883240 
	C987.548035,500.055939 995.346985,502.561981 1002.560181,506.232941 
	C1011.933533,511.003296 1020.796570,516.765198 1030.017334,521.850098 
	C1036.585815,525.472290 1043.492310,528.484253 1050.039185,532.142090 
	C1054.717773,534.756042 1058.978027,538.110291 1063.587280,540.862610 
	C1064.754883,541.559937 1067.061646,541.922546 1067.966553,541.252563 
	C1082.918579,530.182739 1099.151978,521.317810 1115.752563,513.067505 
	C1127.840210,507.060089 1139.771729,500.691986 1152.112671,495.256195 
	C1161.386597,491.171295 1171.157104,488.183929 1180.787231,484.947662 
	C1188.318726,482.416595 1195.931885,480.103668 1203.583862,477.962189 
	C1214.741577,474.839661 1225.941040,471.857391 1237.170776,469.004608 
	C1246.610962,466.606445 1256.044312,464.052551 1265.620117,462.353271 
	C1274.864502,460.712769 1284.432983,460.768829 1293.596924,458.835999 
	C1306.968262,456.015747 1320.657959,457.650421 1333.830322,455.577576 
	C1351.526855,452.792816 1369.130981,453.780121 1386.616455,454.503937 
	C1397.793457,454.966614 1409.140137,456.112732 1420.384766,457.179291 
	C1428.567505,457.955383 1436.573120,460.464569 1444.710815,461.899658 
	C1450.204102,462.868439 1455.836792,463.054443 1461.324341,464.047882 
	C1471.455200,465.881927 1481.625488,467.657104 1491.591553,470.194794 
	C1501.243530,472.652466 1510.750488,475.778473 1520.153931,479.086243 
	C1530.525513,482.734558 1540.759033,486.794617 1550.955811,490.915009 
	C1560.475464,494.761841 1569.995972,498.650452 1579.286499,503.009918 
	C1593.080933,509.482727 1606.885254,515.994080 1620.282593,523.234375 
	C1630.565186,528.791321 1640.250732,535.459595 1650.155151,541.707520 
	C1657.135254,546.110657 1664.275146,550.314026 1670.912964,555.192688 
	C1678.938110,561.091064 1686.553711,567.553040 1694.263794,573.872253 
	C1703.197144,581.194153 1712.271606,588.369019 1720.850952,596.089783 
	C1727.917603,602.449341 1734.441772,609.425171 1741.039429,616.288574 
	C1747.714600,623.232727 1754.525513,630.091431 1760.666748,637.493896 
	C1770.500977,649.347961 1779.899902,661.566956 1789.348267,673.736206 
	C1794.471313,680.334473 1799.601440,686.960388 1804.199097,693.923340 
	C1808.131592,699.878784 1811.255249,706.363831 1814.836670,712.556763 
	C1818.077271,718.160034 1821.629028,723.589478 1824.719238,729.271912 
	C1827.749390,734.843994 1830.288574,740.680542 1833.196167,746.322266 
	C1835.636719,751.057678 1838.570801,755.553528 1840.796021,760.381470 
	C1844.060547,767.464722 1847.005371,774.703125 1849.875610,781.958801 
	C1854.652832,794.035034 1859.394531,806.129028 1863.877319,818.316162 
	C1865.637085,823.100281 1866.591309,828.175537 1868.033813,833.082581 
	C1869.862427,839.303467 1871.857544,845.475403 1873.678223,851.698547 
	C1874.041992,852.941833 1873.842285,854.338684 1874.075684,855.633423 
	C1875.361328,862.762329 1876.575562,869.907593 1878.054688,876.997009 
	C1879.722656,884.991028 1882.113525,892.859924 1883.349243,900.912292 
	C1885.272339,913.445129 1886.704712,926.065491 1887.938965,938.688477 
	C1889.192993,951.513794 1890.132935,964.377380 1890.844238,977.244446 
	C1891.127930,982.376709 1890.366455,987.561157 1890.199341,992.725647 
	C1890.048706,997.382874 1890.285767,1002.061462 1889.955933,1006.702454 
	C1889.112671,1018.568665 1888.021606,1030.416992 1887.085327,1042.276978 
	C1886.656250,1047.711670 1886.726196,1053.212280 1885.915283,1058.584106 
	C1884.648438,1066.974487 1882.794922,1075.275146 1881.246582,1083.624268 
	C1879.793579,1091.458496 1878.609497,1099.348389 1876.934937,1107.133789 
	C1875.746948,1112.657104 1873.890625,1118.034302 1872.437500,1123.504517 
	C1871.977661,1125.235718 1872.129517,1127.153809 1871.536499,1128.821167 
	C1867.511230,1140.142334 1863.298096,1151.396729 1859.276978,1162.719482 
	C1857.060791,1168.960327 1855.365845,1175.395752 1852.960815,1181.558105 
	C1849.430420,1190.603394 1845.646729,1199.560669 1841.646484,1208.408936 
	C1838.282715,1215.848999 1834.709351,1223.219482 1830.768555,1230.366943 
	C1825.910522,1239.178589 1820.666626,1247.783081 1815.421997,1256.374756 
	C1810.051636,1265.172607 1804.833984,1274.097168 1798.900269,1282.508423 
	C1792.185791,1292.026367 1784.768311,1301.050049 1777.619995,1310.260376 
	C1771.804321,1317.753662 1766.236572,1325.467896 1760.016968,1332.612549 
	C1751.212769,1342.726196 1742.220947,1352.718140 1732.726318,1362.176758 
	C1724.396606,1370.474976 1715.271118,1377.975342 1706.483521,1385.812866 
	C1700.245850,1391.376465 1694.185181,1397.163086 1687.678711,1402.393921 
	C1681.261230,1407.553223 1674.439453,1412.220093 1667.691772,1416.955811 
	C1658.225342,1423.599487 1648.713989,1430.182373 1639.117798,1436.636719 
	C1635.209229,1439.265625 1631.115967,1441.654785 1626.954956,1443.867554 
	C1612.899170,1451.341919 1598.845581,1458.827271 1584.639771,1466.008789 
	C1579.575317,1468.568848 1574.014038,1470.125488 1568.792969,1472.400635 
	C1559.382812,1476.501343 1550.216187,1481.207642 1540.654053,1484.900024 
	C1530.747070,1488.725586 1520.550659,1491.846069 1510.369751,1494.904541 
	C1501.603638,1497.537964 1492.737427,1499.897461 1483.813477,1501.930786 
	C1472.342285,1504.544922 1460.785889,1506.796631 1449.233521,1509.036865 
	C1443.185303,1510.209717 1437.093140,1511.246582 1430.975464,1511.950928 
	C1420.641968,1513.140259 1410.004150,1512.936523 1400.015869,1515.418091 
	C1393.736328,1516.978149 1387.763306,1516.799438 1381.672852,1516.908813 
	C1366.344482,1517.184204 1350.995972,1517.370361 1335.678467,1516.879883 
	C1323.968872,1516.504883 1312.287231,1515.115601 1300.606079,1514.038208 
	C1290.741821,1513.128418 1280.839966,1512.383301 1271.058838,1510.885620 
	C1262.640381,1509.596436 1254.363281,1507.371460 1246.033813,1505.514893 
	C1239.444702,1504.046143 1232.827026,1502.673950 1226.305786,1500.943115 
	C1222.074341,1499.819946 1218.004761,1498.095703 1213.842041,1496.702515 
	C1210.089233,1495.446777 1206.325317,1494.217529 1202.536011,1493.077515 
	C1193.502441,1490.359741 1184.357300,1487.975098 1175.438965,1484.924438 
	C1169.316162,1482.830322 1163.497681,1479.846069 1157.544922,1477.255371 
	C1152.314575,1474.979126 1147.033081,1472.811890 1141.869507,1470.392700 
	C1131.900391,1465.722290 1121.912598,1461.077759 1112.093506,1456.104736 
	C1102.598999,1451.296509 1093.229248,1446.226562 1083.957153,1441.000977 
	C1078.982422,1438.197388 1073.610596,1435.519043 1069.733765,1431.511230 
	C1065.930664,1427.579712 1063.262695,1429.110107 1059.992554,1431.072632 
	C1050.058105,1437.034180 1040.145020,1443.031860 1030.257446,1449.070923 
	C1024.114380,1452.822998 1018.157349,1456.898682 1011.879456,1460.403931 
	C1007.785828,1462.689453 1003.188660,1464.053101 998.955322,1466.113525 
	C992.825867,1469.097290 986.929993,1472.576050 980.732849,1475.401245 
	C974.611694,1478.191528 968.335388,1480.718140 961.956604,1482.849854 
	C951.092102,1486.480713 940.109741,1489.763672 929.147339,1493.095459 
	C919.141235,1496.136475 909.156250,1499.276611 899.049683,1501.948608 
	C890.158508,1504.299438 881.163696,1506.343994 872.119568,1508.006714 
	C863.058105,1509.672607 853.711670,1510.012329 844.795654,1512.186157 
	C834.637878,1514.663086 824.235779,1513.596924 814.235413,1515.293457 
	C794.112061,1518.707764 774.018982,1516.341675 753.938293,1516.792236 
	C743.941162,1517.016602 733.892700,1515.081909 723.871704,1514.081909 
	C713.848328,1513.081665 703.772766,1512.405396 693.826416,1510.889526 
	C684.537415,1509.473999 675.398682,1507.088745 666.169861,1505.250732 
	C663.916260,1504.801758 661.501587,1505.108032 659.276428,1504.580078 
	C650.435791,1502.483398 641.541077,1500.523804 632.854492,1497.892334 
	C621.990723,1494.601440 611.329224,1490.647705 600.545471,1487.085938 
	C595.990845,1485.581909 591.313232,1484.450439 586.757996,1482.947998 
	C584.521240,1482.210449 582.435974,1481.013306 579.875610,1480.012329 
M832.372437,1021.521973 
	C832.880432,1023.042419 833.388428,1024.562866 833.958130,1027.006714 
	C834.968140,1037.679810 835.569092,1048.411499 837.085938,1059.012085 
	C839.251038,1074.143799 841.520874,1089.303833 844.802490,1104.219482 
	C847.822571,1117.946045 851.971191,1131.448120 856.122925,1144.894653 
	C859.602295,1156.163452 863.420654,1167.363037 867.810486,1178.303711 
	C871.102661,1186.508545 875.082642,1194.527100 879.614990,1202.115845 
	C883.203186,1208.123535 887.522583,1213.948975 892.551514,1218.778442 
	C899.037231,1225.006958 907.292542,1228.074219 916.295959,1230.014404 
	C925.339294,1231.963013 933.463013,1230.218018 941.068604,1226.390259 
	C950.712036,1221.536865 959.729980,1215.447998 969.063354,1209.969727 
	C992.359314,1196.296265 1015.668579,1182.645508 1038.997314,1169.028198 
	C1052.020264,1161.426636 1065.125366,1153.965332 1078.135254,1146.341919 
	C1096.119141,1135.803711 1114.024170,1125.130981 1132.012207,1114.599731 
	C1139.840942,1110.016357 1147.873901,1105.780029 1155.668701,1101.141479 
	C1169.052002,1093.177002 1182.236084,1084.876099 1195.666138,1076.992554 
	C1205.685547,1071.111084 1216.043823,1065.808594 1226.100708,1059.988037 
	C1238.019531,1053.089722 1249.888184,1046.090820 1261.567139,1038.796753 
	C1270.299438,1033.343018 1279.984497,1029.457520 1286.818848,1020.938416 
	C1297.464600,1007.668701 1303.010010,993.334229 1299.890137,976.190918 
	C1297.651245,963.888611 1292.755249,952.801270 1282.332153,945.676514 
	C1269.865479,937.154968 1256.650513,929.710449 1243.621948,922.033264 
	C1226.204346,911.769958 1208.597534,901.827637 1191.177002,891.569214 
	C1173.687012,881.270020 1156.356689,870.699829 1138.899536,860.344482 
	C1121.534058,850.043396 1104.080566,839.890808 1086.697144,829.619873 
	C1067.962280,818.550415 1049.305786,807.347900 1030.538330,796.334229 
	C1010.158020,784.374084 989.774536,772.414551 969.230652,760.739624 
	C954.386108,752.303711 940.841980,740.899963 922.362793,740.560547 
	C913.296997,740.394043 904.784302,741.304199 897.109314,746.565491 
	C889.268127,751.940613 884.106201,759.588013 879.090515,767.382446 
	C869.992798,781.520691 866.096375,797.812805 860.280823,813.291870 
	C856.882141,822.337830 854.321472,831.707581 851.589111,840.992126 
	C849.233948,848.994873 846.843872,857.011902 845.065002,865.152832 
	C843.175659,873.799377 841.854797,882.578979 840.525208,891.336853 
	C838.569275,904.221313 836.730530,917.125427 835.029663,930.045959 
	C834.094910,937.146729 833.299438,944.283630 832.875000,951.429993 
	C832.097778,964.516357 831.611816,977.620728 831.077759,990.720520 
	C830.967285,993.429932 831.176941,996.152527 831.148315,999.739929 
	C831.609131,1002.252197 832.069946,1004.764404 832.611023,1008.163696 
	C832.684021,1012.444763 832.757019,1016.725891 832.372437,1021.521973 
z"/>
<path fill="#FFFFFF" opacity="1.000000" stroke="none" 
	d="
M831.239075,998.869019 
	C831.176941,996.152527 830.967285,993.429932 831.077759,990.720520 
	C831.611816,977.620728 832.097778,964.516357 832.875000,951.429993 
	C833.299438,944.283630 834.094910,937.146729 835.029663,930.045959 
	C836.730530,917.125427 838.569275,904.221313 840.525208,891.336853 
	C841.854797,882.578979 843.175659,873.799377 845.065002,865.152832 
	C846.843872,857.011902 849.233948,848.994873 851.589111,840.992126 
	C854.321472,831.707581 856.882141,822.337830 860.280823,813.291870 
	C866.096375,797.812805 869.992798,781.520691 879.090515,767.382446 
	C884.106201,759.588013 889.268127,751.940613 897.109314,746.565491 
	C904.784302,741.304199 913.296997,740.394043 922.362793,740.560547 
	C940.841980,740.899963 954.386108,752.303711 969.230652,760.739624 
	C989.774536,772.414551 1010.158020,784.374084 1030.538330,796.334229 
	C1049.305786,807.347900 1067.962280,818.550415 1086.697144,829.619873 
	C1104.080566,839.890808 1121.534058,850.043396 1138.899536,860.344482 
	C1156.356689,870.699829 1173.687012,881.270020 1191.177002,891.569214 
	C1208.597534,901.827637 1226.204346,911.769958 1243.621948,922.033264 
	C1256.650513,929.710449 1269.865479,937.154968 1282.332153,945.676514 
	C1292.755249,952.801270 1297.651245,963.888611 1299.890137,976.190918 
	C1303.010010,993.334229 1297.464600,1007.668701 1286.818848,1020.938416 
	C1279.984497,1029.457520 1270.299438,1033.343018 1261.567139,1038.796753 
	C1249.888184,1046.090820 1238.019531,1053.089722 1226.100708,1059.988037 
	C1216.043823,1065.808594 1205.685547,1071.111084 1195.666138,1076.992554 
	C1182.236084,1084.876099 1169.052002,1093.177002 1155.668701,1101.141479 
	C1147.873901,1105.780029 1139.840942,1110.016357 1132.012207,1114.599731 
	C1114.024170,1125.130981 1096.119141,1135.803711 1078.135254,1146.341919 
	C1065.125366,1153.965332 1052.020264,1161.426636 1038.997314,1169.028198 
	C1015.668579,1182.645508 992.359314,1196.296265 969.063354,1209.969727 
	C959.729980,1215.447998 950.712036,1221.536865 941.068604,1226.390259 
	C933.463013,1230.218018 925.339294,1231.963013 916.295959,1230.014404 
	C907.292542,1228.074219 899.037231,1225.006958 892.551514,1218.778442 
	C887.522583,1213.948975 883.203186,1208.123535 879.614990,1202.115845 
	C875.082642,1194.527100 871.102661,1186.508545 867.810486,1178.303711 
	C863.420654,1167.363037 859.602295,1156.163452 856.122925,1144.894653 
	C851.971191,1131.448120 847.822571,1117.946045 844.802490,1104.219482 
	C841.520874,1089.303833 839.251038,1074.143799 837.085938,1059.012085 
	C835.569092,1048.411499 834.968140,1037.679810 833.968262,1026.147217 
	C833.595642,1023.860779 833.212891,1022.433838 832.830078,1021.006958 
	C832.757019,1016.725891 832.684021,1012.444763 832.719360,1007.313354 
	C832.298157,1003.931702 831.768616,1001.400391 831.239075,998.869019 
z"/>
<path fill="#C0B9F0" opacity="1.000000" stroke="none" 
	d="
M831.193726,999.304443 
	C831.768616,1001.400391 832.298157,1003.931702 832.679260,1006.869873 
	C832.069946,1004.764404 831.609131,1002.252197 831.193726,999.304443 
z"/>
<path fill="#C0B9F0" opacity="1.000000" stroke="none" 
	d="
M832.601318,1021.264465 
	C833.212891,1022.433838 833.595642,1023.860779 833.937439,1025.685547 
	C833.388428,1024.562866 832.880432,1023.042419 832.601318,1021.264465 
z"/>
</svg>